# xmcd
#
# Track frame offsets:
#	150
#	22030
#	46680
#	66681
#	86157
#	110647
#	134451
#	151620
#	181398
#	205315
#
# Disc length: 2881 seconds
# Revision: 0
# Processed by: cddbd v1.5.2PL0 Copyright (c) Steve Scherf et al.
# Submitted via: dBpowerAMP V12.0
#
DISCID=8c0b3f0a
DTITLE=Big James and The Chicago Playboys - The Big Payback
DYEAR=2011
DGENRE=Jazz
TTITLE0=The Blues Will Never Die
TTITLE1=Big Payback
TTITLE2=Coldest Man I Ever Knew
TTITLE3=All Your Love
TTITLE4=Jody's Got Your Girl And Gone
TTITLE5=That's Why I'm Crying
TTITLE6=Trying To Live My Life Without You
TTITLE7=I'll Stay
TTITLE8=Low Down Dirty Blues
TTITLE9=Smoke On The Water
EXTD=
EXTT0=
EXTT1=
EXTT2=
EXTT3=
EXTT4=
EXTT5=
EXTT6=
EXTT7=
EXTT8=
EXTT9=
PLAYORDER=
